# xmcd
#
# Track frame offsets: 
#        300
#        23194
#        53389
#        87601
#        106150
#        135767
#        153054
#        179830
#
# Disc length: 2682 seconds
#
# Revision: 0
# Processed by: cddbd v1.5.2PL0 Copyright (c) Steve Scherf et al.
# Submitted via: ExactAudioCopy v1.0b1
#
DISCID=590a7608
DTITLE=Big Mama Thornton - The Rising Sun Collection
DYEAR=1994
DGENRE=Blues
TTITLE0=Spoonful
TTITLE1=Rock Me Baby
TTITLE2=Ball and Chain
TTITLE3=Watermelon Man
TTITLE4=Summertime
TTITLE5=Medley: Hound Dog Walkin' the Dog
TTITLE6=Sweet Little Angel
TTITLE7=Sassy Mama
EXTD=
EXTT0=
EXTT1=
EXTT2=
EXTT3=
EXTT4=
EXTT5=
EXTT6=
EXTT7=
PLAYORDER=
